<?xml version="1.0" encoding="iso-8859-1"?>
<!DOCTYPE svg PUBLIC "-//W3C//DTD SVG 1.1//EN" "http://www.w3.org/Graphics/SVG/1.1/DTD/svg11.dtd">
<svg version="1.1" xmlns="http://www.w3.org/2000/svg" xmlns:xlink="http://www.w3.org/1999/xlink" 
	x="0px" y="0px"
	width="694.15px" height="694.15px" viewBox="0 0 694.15 694.15" 
	style="enable-background:new 0 0 694.15 694.15; fill:#4287f5;"
	xml:space="preserve">
<g>
	<g>
		<circle cx="372.516" cy="638.75" r="55.4"/>
		<circle cx="579.411" cy="538.269" r="73.665"/>
		<circle cx="192.194" cy="584.808" r="46.528"/>
		<circle cx="81.67" cy="439.656" r="40.594"/>
		<circle cx="79.935" cy="240.164" r="32.927"/>
		<circle cx="178.593" cy="98.779" r="32.926"/>
		<circle cx="324.762" cy="26.982" r="26.982"/>
		<circle cx="481.129" cy="30.054" r="18.154"/>
		<path d="M480.312,157.671l-97.862,107.332c-0.586-0.022-1.139-0.177-1.724-0.177c-43.589,0-78.924,35.335-78.924,78.913
			c0,43.6,35.335,78.935,78.924,78.935s78.924-35.335,78.924-78.935c0-13.723-3.823-26.462-9.988-37.7l49.941-136.677
			c1.536-4.254,0.497-9.204-3.049-12.453C491.857,152.655,484.587,152.986,480.312,157.671z"/>
	</g>
</g>
</svg>
